<svg width="180" height="180" viewBox="0 0 180 180" fill="none" xmlns="http://www.w3.org/2000/svg">
<rect width="180" height="180" rx="90" fill="#1A1A1A"/>
<path d="M79.7089 103.5C79.1778 103.5 78.7985 103.121 78.7985 102.59C78.7985 102.059 79.1778 101.679 79.7089 101.679C80.24 101.679 80.6194 102.059 80.6194 102.59C80.6194 103.045 80.24 103.5 79.7089 103.5Z" fill="url(#paint0_linear_2440_635)"/>
<path d="M71.668 102.438C71.1369 102.438 70.7576 102.058 70.7576 101.527C70.7576 100.996 71.1369 100.617 71.668 100.617C72.1991 100.617 72.5785 100.996 72.5785 101.527C72.6544 101.982 72.1991 102.438 71.668 102.438Z" fill="url(#paint1_linear_2440_635)"/>
<path d="M101.103 103.5C101.634 103.5 102.014 103.121 102.014 102.59C102.014 102.059 101.634 101.679 101.103 101.679C100.572 101.679 100.193 102.059 100.193 102.59C100.193 103.045 100.648 103.5 101.103 103.5Z" fill="url(#paint2_linear_2440_635)"/>
<path d="M109.15 102.438C109.681 102.438 110.06 102.058 110.06 101.527C110.06 100.996 109.681 100.617 109.15 100.617C108.619 100.617 108.239 100.996 108.239 101.527C108.239 101.982 108.694 102.438 109.15 102.438Z" fill="url(#paint3_linear_2440_635)"/>
<path d="M90.3347 114.88C88.8173 114.88 87.4516 114.046 86.4652 112.604C80.5472 112.3 74.6292 111.314 68.863 109.721C68.4836 109.645 68.1043 109.493 67.8008 109.266L68.5595 112.376C69.0906 113.59 70.0769 114.425 71.2909 114.804C75.9949 116.094 82.2164 117.384 89.576 117.46C97.6943 117.536 104.523 116.246 109.53 114.804C110.744 114.425 111.806 113.514 112.262 112.376L113.02 109.341C112.717 109.493 112.338 109.645 111.958 109.797C106.116 111.466 100.198 112.376 94.2042 112.68C93.142 113.97 91.7763 114.88 90.3347 114.88Z" fill="url(#paint4_linear_2440_635)"/>
<path d="M113.399 95.8373C113.019 95.8373 112.564 95.8373 112.109 95.7615C110.44 95.5338 107.481 94.3199 105.811 89.7676C104.37 93.3336 101.411 95.6097 97.9967 95.6097C94.6583 95.6097 91.7752 93.4853 90.3337 90.1469C88.8921 93.4853 85.9331 95.6097 82.6706 95.6097C79.2564 95.6097 76.2215 93.3336 74.8558 89.7676C74.0971 91.892 72.2762 95.9132 67.7239 95.9132C67.5721 95.9132 67.3445 95.9132 67.1169 95.9132C66.1305 95.8373 65.2201 95.6097 64.3855 95.2303L67.041 105.777C67.4962 106.763 68.3308 107.446 69.393 107.749C74.6282 109.191 80.0151 110.177 85.4778 110.481C84.9467 109.191 84.6433 107.749 84.6433 106.156C84.6433 101.452 87.2229 97.7341 90.4095 97.7341C93.5961 97.7341 96.1758 101.528 96.1758 106.156C96.1758 107.749 95.8723 109.267 95.3412 110.556C100.804 110.177 106.267 109.267 111.578 107.825C112.64 107.522 113.475 106.839 113.93 105.852L116.585 95.3062C115.599 95.6097 114.537 95.8373 113.399 95.8373ZM71.6692 104.183C70.1517 104.183 68.9378 102.969 68.9378 101.452C68.9378 99.9344 70.1517 98.7204 71.6692 98.7204C73.1866 98.7204 74.4006 99.9344 74.4006 101.452C74.4006 102.969 73.1866 104.183 71.6692 104.183ZM79.7116 105.321C78.1942 105.321 76.9802 104.107 76.9802 102.59C76.9802 101.072 78.1942 99.8585 79.7116 99.8585C81.229 99.8585 82.443 101.072 82.443 102.59C82.443 104.107 81.229 105.321 79.7116 105.321ZM101.107 105.321C99.59 105.321 98.3761 104.107 98.3761 102.59C98.3761 101.072 99.59 99.8585 101.107 99.8585C102.625 99.8585 103.839 101.072 103.839 102.59C103.839 104.107 102.625 105.321 101.107 105.321ZM109.15 104.183C107.632 104.183 106.418 102.969 106.418 101.452C106.418 99.9344 107.632 98.7204 109.15 98.7204C110.667 98.7204 111.881 99.9344 111.881 101.452C111.881 102.969 110.667 104.183 109.15 104.183Z" fill="url(#paint5_linear_2440_635)"/>
<path d="M90.3316 111.239C88.9659 111.239 87.4485 109.115 87.4485 106.08C87.4485 103.045 88.9659 100.92 90.3316 100.92C91.6973 100.92 93.2147 103.045 93.2147 106.08C93.2147 109.115 91.6973 111.239 90.3316 111.239Z" fill="url(#paint6_linear_2440_635)"/>
<path d="M121.591 78.9174L120.756 78.6897L125.309 63.0602C125.309 63.0602 125.309 62.9843 125.233 62.9843C123.184 63.743 121.591 65.3363 120.908 67.5366C120.832 67.8401 120.756 68.1436 120.681 68.447C120.377 68.2953 120.074 68.1436 119.694 67.9918C115.445 66.8537 112.942 71.9372 115.673 74.972C116.28 75.6549 116.963 76.2618 117.722 76.7171C117.342 75.0479 116.356 73.0752 117.418 71.6337C118.101 70.7991 119.087 71.0267 119.694 71.9372C120.377 72.9235 119.77 75.8066 119.087 78.0828L118.025 77.7793C117.342 77.5517 116.659 78.0069 116.432 78.6897C116.204 79.3726 116.659 80.0554 117.342 80.283L118.253 80.5865L116.508 86.0493C115.749 88.3255 114.611 90.2981 113.245 90.2981C111.424 90.2223 110.59 88.4013 109.831 86.0493L106.568 75.5031C107.782 75.2755 108.693 74.1374 108.693 72.8476C108.693 71.7854 108.086 70.8749 107.251 70.4197C107.707 70.0404 108.01 69.5093 108.01 68.9023C108.01 67.7642 107.1 66.9296 106.037 66.9296C104.899 66.9296 104.065 67.8401 104.065 68.9023C104.065 69.5093 104.368 70.1162 104.823 70.4197C103.989 70.8749 103.382 71.7854 103.382 72.8476C103.382 74.0616 104.141 75.0479 105.203 75.4273L101.864 86.0493C100.043 91.8914 96.0223 91.8914 94.2013 86.0493L91.5458 77.6275H91.9252C92.608 77.6275 93.215 77.0206 93.215 76.3377C93.215 75.6549 92.608 75.0479 91.9252 75.0479H91.6976C91.6976 72.8476 91.8493 70.7232 92.7598 70.0404C93.5944 69.3575 94.7324 69.4334 95.1877 70.4197C95.8705 71.9372 94.5048 73.1511 93.2909 73.4546C93.5944 74.365 95.0359 74.5168 96.0223 73.9857C99.5124 71.8613 98.2984 66.2468 93.8979 66.1709C93.5185 66.1709 93.1391 66.2468 92.8357 66.3226C92.9115 66.0192 92.9115 65.7157 92.9115 65.3363C92.9115 63.2119 91.9252 61.2392 90.4077 59.9494C90.3319 59.9494 90.3319 59.8735 90.256 59.8735C90.1801 59.8735 90.1801 59.9494 90.1043 59.9494C88.5868 61.2392 87.6005 63.136 87.6005 65.3363C87.6005 65.6398 87.6005 65.9433 87.6764 66.3226C87.297 66.2468 86.9935 66.1709 86.6142 66.1709C82.2136 66.3226 80.9997 71.8613 84.4898 73.9857C85.4761 74.5168 86.9176 74.365 87.2211 73.4546C86.0072 73.0752 84.6415 71.8613 85.3243 70.4197C85.7796 69.4334 86.9176 69.3575 87.7522 70.0404C88.5868 70.7232 88.8144 72.8476 88.8144 75.0479H88.5868C87.904 75.0479 87.297 75.6549 87.297 76.3377C87.297 77.0206 87.904 77.6275 88.5868 77.6275H89.0421L86.3865 86.0493C84.5656 91.8914 80.5444 91.8914 78.7235 86.0493L75.3851 75.4273C76.5232 75.1238 77.3578 74.0616 77.3578 72.8476C77.3578 71.7854 76.7508 70.8749 75.9162 70.4197C76.3715 70.0404 76.675 69.5093 76.675 68.9023C76.675 67.7642 75.7645 66.9296 74.7023 66.9296C73.5642 66.9296 72.7296 67.8401 72.7296 68.9023C72.7296 69.5093 73.0331 70.1162 73.4883 70.4197C72.6538 70.8749 72.0468 71.7854 72.0468 72.8476C72.0468 74.1374 72.8814 75.1996 74.0953 75.5031L70.757 86.1252C69.9982 88.4772 69.2395 90.374 67.4186 90.374C66.0529 90.4499 64.839 88.4013 64.1561 86.1252L62.3352 80.6624L63.3215 80.3589C64.0044 80.1313 64.3837 79.4485 64.232 78.7656C64.0802 78.0828 63.3215 77.7034 62.6387 77.8551L61.5765 78.1586C60.8936 75.8825 60.2867 72.9235 60.9695 72.013C61.5765 71.1784 62.5628 70.8749 63.2457 71.7095C64.3079 73.1511 63.3215 75.1238 62.9422 76.7929C63.7009 76.3377 64.3837 75.8066 64.9907 75.0479C67.7221 72.013 65.2183 66.8537 60.9695 68.0677C60.5901 68.1436 60.2867 68.3712 59.9832 68.5229C59.9073 68.2194 59.9073 67.9159 59.7555 67.6125C59.0727 65.4122 57.4035 63.743 55.4309 63.0602C55.4309 63.0602 55.4309 63.136 55.355 63.136L59.9073 78.7656L59.0727 78.9932C58.3899 79.2208 58.0105 79.9037 58.1622 80.5865C58.3899 81.2694 59.0727 81.6487 59.7555 81.497L60.5143 81.2694L63.2457 89.767C63.5491 91.2086 64.9907 92.726 67.3427 92.8778C69.4671 93.0295 71.0604 91.8914 72.1985 88.0978L74.7782 79.8278L77.3578 88.0978C78.2683 90.9051 80.2409 92.6501 82.593 92.6501C84.945 92.6501 86.9935 90.9051 87.8281 88.0978L90.256 80.3589L92.6839 88.0978C93.5944 90.9051 95.567 92.6501 97.9191 92.6501C100.271 92.6501 102.32 90.9051 103.154 88.0978L105.734 79.8278L108.313 88.0978C109.3 91.2845 110.969 92.5743 112.486 92.8019C115.218 93.2571 116.963 91.3603 117.266 89.767L119.998 81.1935L120.756 81.4211C121.439 81.6487 122.122 81.1935 122.35 80.5107C122.653 79.9037 122.274 79.145 121.591 78.9174Z" fill="url(#paint7_linear_2440_635)"/>
<path d="M90.1048 157.368L89.422 157.216C56.7213 148.188 33.9597 118.294 33.9597 84.3796V46.2161H36.5394C49.9687 46.2161 62.8669 42.119 73.7924 34.3042L90.1048 22.6958L106.493 34.3042C117.343 42.119 130.241 46.2161 143.67 46.2161H146.25V84.3037C146.25 118.218 123.413 148.112 90.7877 157.141L90.1048 157.368ZM39.0431 51.2995V84.3796C39.0431 115.715 59.9837 143.484 90.1048 152.057C120.226 143.484 141.167 115.715 141.167 84.3796V51.2995C127.586 50.8442 114.611 46.3678 103.534 38.4771L90.1048 28.9932L76.7514 38.553C65.5983 46.4437 52.6242 50.8442 39.0431 51.2995Z" fill="url(#paint8_linear_2440_635)"/>
<path d="M90.0314 146.444C63.1728 138.022 44.4325 112.529 44.4325 84.3048V56.2322H44.736C57.3307 54.8665 69.4702 50.2384 79.8646 42.8029L90.1832 35.4434L100.502 42.8029C110.896 50.2384 123.036 54.8665 135.63 56.2322H135.934V84.3048C135.934 112.453 117.194 138.022 90.3349 146.444H90.2591H90.0314ZM90.1073 36.4297C89.9556 36.4297 89.8038 36.5056 89.728 36.5814L80.244 43.334C70.0013 50.6177 58.0894 55.2459 45.7223 56.7633C45.343 56.8392 45.1153 57.1427 45.1153 57.4462V84.3048C45.1153 112.074 63.5522 137.263 89.9556 145.685C90.0314 145.685 90.1073 145.685 90.1832 145.685C90.2591 145.685 90.3349 145.685 90.4108 145.685C116.814 137.263 135.251 111.998 135.251 84.3048V57.4462C135.251 57.0668 135.023 56.7633 134.644 56.7633C122.277 55.2459 110.289 50.6177 100.122 43.334L90.6384 36.5814C90.4108 36.5056 90.2591 36.4297 90.1073 36.4297Z" fill="url(#paint9_linear_2440_635)"/>
<defs>
<linearGradient id="paint0_linear_2440_635" x1="79.0755" y1="65.6869" x2="80.1088" y2="124.319" gradientUnits="userSpaceOnUse">
<stop offset="0.00446955" stop-color="#EAD09A"/>
<stop offset="0.1698" stop-color="#DFB968"/>
<stop offset="0.4201" stop-color="#DFB968"/>
<stop offset="0.9838" stop-color="#965D24"/>
</linearGradient>
<linearGradient id="paint1_linear_2440_635" x1="71.074" y1="65.8275" x2="72.1073" y2="124.46" gradientUnits="userSpaceOnUse">
<stop offset="0.00446955" stop-color="#EAD09A"/>
<stop offset="0.1698" stop-color="#DFB968"/>
<stop offset="0.4201" stop-color="#DFB968"/>
<stop offset="0.9838" stop-color="#965D24"/>
</linearGradient>
<linearGradient id="paint2_linear_2440_635" x1="100.483" y1="65.3096" x2="101.516" y2="123.942" gradientUnits="userSpaceOnUse">
<stop offset="0.00446955" stop-color="#EAD09A"/>
<stop offset="0.1698" stop-color="#DFB968"/>
<stop offset="0.4201" stop-color="#DFB968"/>
<stop offset="0.9838" stop-color="#965D24"/>
</linearGradient>
<linearGradient id="paint3_linear_2440_635" x1="108.528" y1="65.1676" x2="109.561" y2="123.8" gradientUnits="userSpaceOnUse">
<stop offset="0.00446955" stop-color="#EAD09A"/>
<stop offset="0.1698" stop-color="#DFB968"/>
<stop offset="0.4201" stop-color="#DFB968"/>
<stop offset="0.9838" stop-color="#965D24"/>
</linearGradient>
<linearGradient id="paint4_linear_2440_635" x1="89.6319" y1="65.501" x2="90.665" y2="124.132" gradientUnits="userSpaceOnUse">
<stop offset="0.00446955" stop-color="#EAD09A"/>
<stop offset="0.1698" stop-color="#DFB968"/>
<stop offset="0.4201" stop-color="#DFB968"/>
<stop offset="0.9838" stop-color="#965D24"/>
</linearGradient>
<linearGradient id="paint5_linear_2440_635" x1="89.8763" y1="65.4974" x2="90.9094" y2="124.129" gradientUnits="userSpaceOnUse">
<stop offset="0.00446955" stop-color="#EAD09A"/>
<stop offset="0.1698" stop-color="#DFB968"/>
<stop offset="0.4201" stop-color="#DFB968"/>
<stop offset="0.9838" stop-color="#965D24"/>
</linearGradient>
<linearGradient id="paint6_linear_2440_635" x1="89.5913" y1="65.502" x2="90.6244" y2="124.133" gradientUnits="userSpaceOnUse">
<stop offset="0.00446955" stop-color="#EAD09A"/>
<stop offset="0.1698" stop-color="#DFB968"/>
<stop offset="0.4201" stop-color="#DFB968"/>
<stop offset="0.9838" stop-color="#965D24"/>
</linearGradient>
<linearGradient id="paint7_linear_2440_635" x1="90.3519" y1="65.4884" x2="91.3851" y2="124.12" gradientUnits="userSpaceOnUse">
<stop offset="0.00446955" stop-color="#EAD09A"/>
<stop offset="0.1698" stop-color="#DFB968"/>
<stop offset="0.4201" stop-color="#DFB968"/>
<stop offset="0.9838" stop-color="#965D24"/>
</linearGradient>
<linearGradient id="paint8_linear_2440_635" x1="89.5454" y1="16.7732" x2="91.0953" y2="155.861" gradientUnits="userSpaceOnUse">
<stop offset="0.00446955" stop-color="#EAD09A"/>
<stop offset="0.1698" stop-color="#DFB968"/>
<stop offset="0.4201" stop-color="#DFB968"/>
<stop offset="0.9838" stop-color="#965D24"/>
</linearGradient>
<linearGradient id="paint9_linear_2440_635" x1="89.4923" y1="16.7747" x2="91.0421" y2="155.862" gradientUnits="userSpaceOnUse">
<stop offset="0.00446955" stop-color="#EAD09A"/>
<stop offset="0.1698" stop-color="#DFB968"/>
<stop offset="0.4201" stop-color="#DFB968"/>
<stop offset="0.9838" stop-color="#965D24"/>
</linearGradient>
</defs>
</svg>
